USFL
nRows=111
nColumns=2
inDegrees=yes
endheader
time	med_gas_r	
3.625	 48.762251	
3.6875	 48.818898	
3.75	 48.806103	
3.8125	 48.807485	
3.875	 48.773876	
3.9375	 48.825362	
4	 48.811058	
4.0625	 48.947415	
4.125	 48.920172	
4.1875	 48.835834	
4.25	 48.694592	
4.3125	 48.861365	
4.375	 48.834649	
4.4375	 48.820778	
4.5	 48.817910	
4.5625	 48.904590	
4.625	 48.914254	
4.6875	 48.886254	
4.75	 48.902563	
4.8125	 48.896806	
4.875	 48.652367	
4.9375	 48.801072	
5	 48.705284	
5.0625	 48.732440	
5.125	 48.824158	
5.1875	 48.928764	
5.25	 48.811796	
5.3125	 49.017976	
5.375	 48.593523	
5.4375	 48.045412	
5.5	 48.486375	
5.5625	 48.821610	
5.625	 48.344189	
5.6875	 43.109342	
5.75	 42.986261	
5.8125	 42.418507	
5.875	 39.728966	
5.9375	 39.843338	
6	 39.916337	
6.0625	 39.690948	
6.125	 39.139199	
6.1875	 38.587159	
6.25	 37.211312	
6.3125	 36.025820	
6.375	 35.566377	
6.4375	 35.399641	
6.5	 34.922514	
6.5625	 34.635961	
6.625	 34.404731	
6.6875	 33.926141	
6.75	 33.419938	
6.8125	 32.985172	
6.875	 33.450467	
6.9375	 33.258623	
7	 33.411641	
7.0625	 33.365192	
7.125	 33.295172	
7.1875	 33.237334	
7.25	 32.922098	
7.3125	 32.848359	
7.375	 32.943382	
7.4375	 33.165889	
7.5	 32.471700	
7.5625	 31.809590	
7.625	 31.603642	
7.6875	 31.661439	
7.75	 31.334165	
7.8125	 31.276377	
7.875	 31.455433	
7.9375	 31.510142	
8	 31.458702	
8.0625	 31.491090	
8.125	 31.530063	
8.1875	 31.358024	
8.25	 31.120664	
8.3125	 31.165235	
8.375	 31.099458	
8.4375	 31.331960	
8.5	 31.683224	
8.5625	 31.287637	
8.625	 31.549773	
8.6875	 31.715413	
8.75	 31.592101	
8.8125	 31.459203	
8.875	 31.618193	
8.9375	 31.611609	
9	 31.723004	
9.0625	 31.663207	
9.125	 31.389809	
9.1875	 31.246356	
9.25	 31.577927	
9.3125	 31.512873	
9.375	 31.663231	
9.4375	 31.698693	
9.5	 31.650118	
9.5625	 31.644039	
9.625	 32.100510	
9.6875	 33.403159	
9.75	 34.578561	
9.8125	 36.072596	
9.875	 36.464095	
9.9375	 36.950884	
10	 40.460900	
10.0625	 41.166639	
10.125	 41.400397	
10.1875	 41.695259	
10.25	 42.046686	
10.3125	 45.758577	
10.375	 49.895994	
10.4375	 49.629899	
10.5	 49.865484	
